<?xml version="1.0" encoding="UTF-8"?><svg xmlns="http://www.w3.org/2000/svg" xmlns:xlink="http://www.w3.org/1999/xlink" viewBox="0 0 560.32 757.06"><defs><style>.g{fill:#fff;}.h{fill:url(#f);}.i{fill:url(#d);}.j{fill:url(#e);}</style><linearGradient id="d" x1="279.49" y1="757.06" x2="279.49" y2="0" gradientTransform="translate(119.91) skewX(-17.58)" gradientUnits="userSpaceOnUse"><stop offset="0" stop-color="#3fa9f5"/><stop offset=".21" stop-color="#3681f0"/><stop offset=".42" stop-color="#3061ec"/><stop offset=".61" stop-color="#2b4be9"/><stop offset=".8" stop-color="#283de7"/><stop offset=".96" stop-color="#2839e7"/></linearGradient><linearGradient id="e" x1="110.73" y1="663.31" x2="110.73" y2="93.75" xlink:href="#d"/><linearGradient id="f" x1="449.59" y1="663.31" x2="449.59" y2="93.75" gradientTransform="translate(119.91) skewX(-17.58)" gradientUnits="userSpaceOnUse"><stop offset="0" stop-color="#3fa9f5" stop-opacity=".98"/><stop offset=".26" stop-color="#3887f0" stop-opacity=".99"/><stop offset=".73" stop-color="#2c4fe9" stop-opacity="1"/><stop offset=".96" stop-color="#2839e7"/></linearGradient></defs><g id="a"/><g id="b"><g id="c"><g><g><path class="i" d="M170.6,757.06h-33.39L236.33,131.25C247.81,58.76,315.88,0,388.37,0h33.39l-99.12,625.8c-11.48,72.49-79.55,131.25-152.04,131.25Z"/><path class="j" d="M0,663.31h0L69.42,225.01c11.48-72.49,79.55-131.25,152.04-131.25h0l-69.42,438.3C140.56,604.54,72.49,663.31,0,663.31Z"/><path class="h" d="M338.86,663.31h0l69.42-438.3c11.48-72.49,79.55-131.25,152.04-131.25h0l-69.42,438.3c-11.48,72.49-79.55,131.25-152.04,131.25Z"/></g><path class="g" d="M258.02,388.77c39.65-33.92,61.88-64.31,66.74-91.19,.88-6.16,1.32-10.13,1.32-11.89,0-14.09-6.18-21.14-18.5-21.14-8.82,0-15.76,3.86-20.82,11.56-5.07,7.71-9.58,22.14-13.54,43.28H131.16c12.77-60.35,38.43-105.06,76.98-134.14,38.54-29.07,82.7-43.61,132.48-43.61s83.69,10.47,105.72,31.39c22.02,20.93,33.04,47.91,33.04,80.94,0,6.17-.89,15.86-2.64,29.07-7.49,41.86-28.31,81.27-62.44,118.28-34.14,37-74.78,68.95-121.91,95.81h151.31l-21.14,118.28H80.94l19.16-110.35c65.63-43.61,118.28-82.37,157.92-116.3Z"/></g></g></g></svg>