<?xml version="1.0" encoding="UTF-8"?><svg xmlns="http://www.w3.org/2000/svg" xmlns:xlink="http://www.w3.org/1999/xlink" viewBox="0 0 910 912"><defs><style>.i,.j{fill:#fff;}.k{fill:url(#f);}.l{fill:url(#g);}.m{fill:url(#h);}.j{filter:url(#d);}</style><filter id="d" filterUnits="userSpaceOnUse"><feOffset dx="7" dy="7"/><feGaussianBlur result="e" stdDeviation="9"/><feFlood flood-color="#000" flood-opacity=".22"/><feComposite in2="e" operator="in"/><feComposite in="SourceGraphic"/></filter><linearGradient id="f" x1="447.33" y1="827.53" x2="447.33" y2="70.47" gradientTransform="translate(142.23) skewX(-17.58)" gradientUnits="userSpaceOnUse"><stop offset="0" stop-color="#3fa9f5"/><stop offset=".21" stop-color="#3681f0"/><stop offset=".42" stop-color="#3061ec"/><stop offset=".61" stop-color="#2b4be9"/><stop offset=".8" stop-color="#283de7"/><stop offset=".96" stop-color="#2839e7"/></linearGradient><linearGradient id="g" x1="278.57" y1="733.78" x2="278.57" y2="164.22" xlink:href="#f"/><linearGradient id="h" x1="617.43" y1="733.78" x2="617.43" y2="164.22" gradientTransform="translate(142.23) skewX(-17.58)" gradientUnits="userSpaceOnUse"><stop offset="0" stop-color="#3fa9f5" stop-opacity=".98"/><stop offset=".26" stop-color="#3887f0" stop-opacity=".99"/><stop offset=".73" stop-color="#2c4fe9" stop-opacity="1"/><stop offset=".96" stop-color="#2839e7"/></linearGradient></defs><g id="a"/><g id="b"><g id="c"><g><path class="j" d="M713.01,878H70.3c-30.89,0-52.9-23.11-49.16-51.62L120.27,71.62c3.74-28.51,31.83-51.62,62.72-51.62H825.7c30.89,0,52.9,23.11,49.16,51.62l-99.14,754.76c-3.74,28.51-31.83,51.62-62.72,51.62Z"/><g><g><path class="k" d="M338.44,827.53h-33.39L404.17,201.73c11.48-72.49,79.55-131.25,152.04-131.25h33.39l-99.12,625.8c-11.48,72.49-79.55,131.25-152.04,131.25Z"/><path class="l" d="M167.84,733.78h0l69.42-438.3c11.48-72.49,79.55-131.25,152.04-131.25h0l-69.42,438.3c-11.48,72.49-79.55,131.25-152.04,131.25Z"/><path class="m" d="M506.7,733.78h0l69.42-438.3c11.48-72.49,79.55-131.25,152.04-131.25h0l-69.42,438.3c-11.48,72.49-79.55,131.25-152.04,131.25Z"/></g><path class="i" d="M425.86,459.24c39.65-33.92,61.88-64.31,66.74-91.19,.88-6.16,1.32-10.13,1.32-11.89,0-14.09-6.18-21.14-18.5-21.14-8.82,0-15.76,3.86-20.82,11.56-5.07,7.71-9.58,22.14-13.54,43.28h-142.06c12.77-60.35,38.43-105.06,76.98-134.14,38.54-29.07,82.7-43.61,132.48-43.61s83.69,10.47,105.72,31.39c22.02,20.93,33.04,47.91,33.04,80.94,0,6.17-.89,15.86-2.64,29.07-7.49,41.86-28.31,81.27-62.44,118.28-34.14,37-74.78,68.95-121.91,95.81h151.31l-21.14,118.28H248.78l19.16-110.35c65.63-43.61,118.28-82.37,157.92-116.3Z"/></g></g></g></g></svg>