<svg id="visual" viewBox="0 0 900 600" width="900" height="600" xmlns="http://www.w3.org/2000/svg" xmlns:xlink="http://www.w3.org/1999/xlink" version="1.1"><rect x="0" y="0" width="900" height="600" fill="#ffffff"></rect><path d="M343 600L342.7 575C342.3 550 341.7 500 383.8 450C426 400 511 350 556.7 300C602.3 250 608.7 200 606.3 150C604 100 593 50 587.5 25L582 0L900 0L900 25C900 50 900 100 900 150C900 200 900 250 900 300C900 350 900 400 900 450C900 500 900 550 900 575L900 600Z" fill="#3060ec" stroke-linecap="round" stroke-linejoin="miter"></path></svg>
