<svg id="visual" viewBox="0 0 900 600" width="900" height="600" xmlns="http://www.w3.org/2000/svg" xmlns:xlink="http://www.w3.org/1999/xlink" version="1.1"><rect x="0" y="0" width="900" height="600" fill="#ffffff"></rect><path d="M458 600L448.8 580C439.7 560 421.3 520 417.5 480C413.7 440 424.3 400 438.2 360C452 320 469 280 496 240C523 200 560 160 564.8 120C569.7 80 542.3 40 528.7 20L515 0L900 0L900 20C900 40 900 80 900 120C900 160 900 200 900 240C900 280 900 320 900 360C900 400 900 440 900 480C900 520 900 560 900 580L900 600Z" fill="#3060ec" stroke-linecap="round" stroke-linejoin="miter"></path></svg>